<?xml version="1.0" encoding="UTF-8"?>
<svg id="Layer_1" data-name="Layer 1" xmlns="http://www.w3.org/2000/svg" viewBox="0 0 1200 1200">
  <defs>
    <style>
      .cls-1 {
        stroke: #002526;
        stroke-miterlimit: 10;
        stroke-width: 2px;
      }

      .cls-1, .cls-2 {
        fill: #002526;
      }

      .cls-2, .cls-3, .cls-4 {
        fill-rule: evenodd;
      }

      .cls-3 {
        fill: #b1892e;
      }

      .cls-4 {
        fill: #004b26;
      }
    </style>
  </defs>
  <g>
    <path class="cls-1" d="M355.69,957.88c0,8.48,3.07,17.91,13.88,17.91h5.51v5.4h-4.66c-9.43,0-14.84-6.78-17.06-12.72-3.18,7.52-9.64,13.67-19.92,13.67-15.26,0-22.36-12.72-22.36-25.33,0-1.7,.11-3.5,.42-5.09-1.59,.53-3.5,.74-5.62,.74h-9.96c-7.84,0-12.61,4.66-12.61,12.93v34.12h-5.72v-33.17c0-5.51,1.27-19.39,16.85-19.39h9.96c5.09,0,8.48-2.01,10.92-5.83,3.39-5.4,9.54-9.64,18.12-9.64,15.26,0,22.25,13.67,22.25,25.33v1.06Zm-22.25-21.19c-11.55,0-16.32,11.23-16.32,20.13s4.77,20.13,16.32,20.13,16.11-11.34,16.11-20.13-4.56-20.13-16.11-20.13Z"/>
    <path class="cls-1" d="M374.55,981.19v-5.4h9.11c7.84,0,12.61-4.66,12.61-13.03v-28.82h5.72v27.98c0,5.51-1.27,19.29-16.85,19.29h-10.6Zm6.78,18.44h-6.68v-7.21h6.68v7.21Zm14.52,0h-6.68v-7.21h6.68v7.21Z"/>
    <path class="cls-1" d="M433.47,937.32h5.72v23.53c.32,8.48,4.77,14.94,14.41,14.94h4.34v5.4h-3.39c-6.89,0-12.5-3.81-15.37-8.05v8.16c0,9.86-8.48,18.23-19.39,18.12-4.35,0-9.33-2.12-10.49-2.86l-.64-5.3c4.35,2.44,8.9,2.76,10.49,2.76,7.42,0,13.35-4.56,14.31-12.72v-43.98Z"/>
    <path class="cls-1" d="M539.34,958.72c0,6.89-2.97,12.93-7.84,17.06h23.63v5.4h-97.39v-5.4h58.81c10.39-.42,16.64-9.11,16.64-18.02,0-8.16-6.57-18.54-17.49-18.54h-44.3c0-14.62,12.29-26.81,26.92-26.81h12.72v4.77h-11.55c-10.07,0-20.03,7.63-21.83,16.64h38.04c14.52,0,23.63,12.19,23.63,24.9Z"/>
    <path class="cls-1" d="M554.6,981.19v-5.4h9.11c7.84,0,12.61-4.66,12.61-13.03v-50.34h5.72v49.49c0,5.51-1.27,19.29-16.85,19.29h-10.6Z"/>
    <path class="cls-1" d="M603.03,981.19h-5.72v-68.78h5.72v68.78Z"/>
    <path class="cls-1" d="M688.33,933.93h5.72v29.35c0,21.72-11.55,36.24-30.84,36.24s-30.31-14.52-30.31-36.24c0-4.98,1.06-10.6,2.33-14.62h6.57c-1.91,4.66-2.86,10.07-2.86,14.62,0,16.32,8.79,30.41,24.27,30.41,16.32,0,25.12-14.09,25.12-30.41v-29.35Zm-21.19,18.12h-6.68v-7.21h6.68v7.21Z"/>
    <path class="cls-1" d="M722.99,900.44c-.85,3.5-3.07,5.93-7.1,5.93-2.65,0-4.77-1.59-7.74-1.59-1.48,0-3.18,.85-3.6,2.44h-2.97c.74-3.81,3.29-6.04,6.89-6.04,.42,0,1.06,0,1.48,.11,1.38,.21,4.77,1.59,6.25,1.59,1.59,0,3.18-.85,3.92-2.44h2.86Zm-7.95,80.75h-5.72v-68.78h5.72v68.78Z"/>
    <path class="cls-1" d="M746.51,937.32h5.72v23.53c.32,8.48,4.77,14.94,14.41,14.94h4.34v5.4h-3.39c-6.89,0-12.5-3.81-15.37-8.05v8.16c0,9.86-8.48,18.23-19.39,18.12-4.35,0-9.33-2.12-10.49-2.86l-.64-5.3c4.35,2.44,8.9,2.76,10.49,2.76,7.42,0,13.35-4.56,14.31-12.72v-43.98Z"/>
    <path class="cls-1" d="M822.28,952.79c-.11,11.34-6.57,18.44-13.67,22.57,1.27,.32,2.12,.42,2.54,.42h21.83v5.4h-20.03c-1.8,0-6.25-.64-11.34-2.44-4.98,1.8-9.64,2.44-11.34,2.44h-19.92v-5.4h21.72c.42,0,1.38-.11,2.65-.42-7.31-4.13-13.78-11.23-13.78-22.57,0-10.7,7.74-21.09,20.67-21.09s20.67,10.39,20.67,21.09Zm-20.67,20.35c6.78-3.07,14.84-9.33,14.94-20.24,0-7.21-5.51-16.43-14.94-16.43s-14.94,9.22-14.94,16.43c.21,10.92,8.16,17.17,14.94,20.24Zm-3.92-53.62h-6.68v-7.1h6.68v7.1Zm14.52,0h-6.68v-7.1h6.68v7.1Z"/>
    <path class="cls-1" d="M832.56,981.19v-5.4h9.11c7.84,0,12.61-4.66,12.61-13.03v-50.34h5.72v49.49c0,5.51-1.27,19.29-16.85,19.29h-10.6Z"/>
    <path class="cls-1" d="M880.99,981.19h-5.72v-68.78h5.72v68.78Z"/>
  </g>
  <path class="cls-4" d="M287.25,309.82c-19.13-1.83-46.26,41.5-81.38,129.97,0,0,124.59,77.66,373.76,232.98,0,0,.24-12.59,.71-26.77,0,0-116.73-70.21-351.25-213.48,0,0,19.39-40.9,58.16-122.7h0Zm595.37,0c19.13-1.83,46.26,41.5,81.38,129.97,0,0-124.59,77.66-373.76,232.98,0,0-.24-12.59-.71-26.77,0,0,116.73-70.21,351.25-213.48,0,0-19.39-40.9-58.16-122.7h0Z"/>
  <path class="cls-3" d="M581.2,567.69c68-123.48,239.18-118.32,267.91-167.99,0,0-16.5-33.75-47.59-98.97-139.74,38.12-214.19,85.26-221.08,143.72-18.7-57.22-89.87-106.01-221.83-144.86-31.6,66.49-47.4,99.73-47.4,99.73,80.02,59.22,216.85,60.97,269.99,168.37h0Zm-23.62,40.95L252.69,427.38c21.81-42.59,41.08-104.22,86.38-122.03-13.85,29.15-27.7,58.31-41.57,87.45l-5.37,11.28,10.04,7.43c8.47,6.27,17.5,11.9,26.92,17.08,9.66,6.3,20.57,11.09,30.46,15.03,1.4,.56,2.81,1.11,4.22,1.66,76.28,32.65,165.16,51.01,203.82,129.13l8.01,16.19-18.04,18.04h0Zm54.72,0l304.88-181.26c-23.63-46.16-44.29-114.69-98.33-125.55,14.52,30.45,29.09,60.9,43.89,91.21l3.54,7.26-.1,.17,.18,.36c-.69,1.09-1.45,2.16-2.25,3.22l-1.87,3.24c-10.56,18.26-33.1,28.83-51.93,36.34-24.59,9.8-50.28,17.39-75.15,26.61-21.06,7.81-41.61,16.61-60.68,27.38-9.18,5.32-18.16,11.07-26.81,17.34-21.19,15.76-39.49,35.18-53.18,60.04l-5.62,10.21,23.43,23.43h0Z"/>
  <path class="cls-2" d="M722.7,659.87h0c4.26-6.06,12.71-7.54,18.77-3.28l49.72,34.93-6.08,11.67-6.48,12.44-52.65-36.99c-6.06-4.26-7.54-12.71-3.28-18.77h0Zm-121.22,23.28c173.35,116.2,261.83,171.56,265.44,166.09,36.69-42.22-50.23-88.34-76-106.44l-73.66-51.75c-12.91-9.07-16.04-26.99-6.97-39.9,9.07-12.91,26.99-16.04,39.9-6.97l48.49,34.07c-3.78-6.28-10.61-19.56-20.49-39.84-9.35-4.08-26.55-13.69-51.57-28.82-83.43,49.04-125.14,73.57-125.14,73.57h0Zm-33.09,0c-173.35,116.2-261.83,171.56-265.44,166.09-37.32-42.95,51.49-88.43,77.13-106.44l73.67-51.75c12.91-9.07,16.04-26.99,6.97-39.9-9.07-12.91-26.99-16.04-39.9-6.97l-50.5,35.48c3.55-5.55,10.67-19.3,21.36-41.25,9.35-4.08,26.55-13.69,51.57-28.82,83.43,49.04,125.14,73.57,125.14,73.57h0Zm-120.08-23.28h0c-4.26-6.06-12.71-7.54-18.77-3.28l-50.55,35.51,5.77,11.08,6.78,13.03,53.48-37.57c6.06-4.26,7.54-12.71,3.28-18.77h0Z"/>
  <path class="cls-2" d="M631.78,287.97l52.9-62.85,45.75-54.36c6.61,5.76,12.87,11.9,18.76,18.39l-54.56,45.92-62.85,52.9h0Zm-46.85-171.67c4.39,0,8.74,.14,13.06,.39l-6.02,70.03-7.04,81.84-7.04-81.84-6.02-70.03c4.32-.25,8.67-.39,13.06-.39h0Zm43.86,4.35c8.62,1.73,17.06,3.97,25.28,6.67l-24.01,66.27-27.98,77.23,14.39-80.88,12.33-69.3h0Zm54.05,18.41c7.86,3.88,15.46,8.21,22.76,12.96l-40.53,58.06-47.02,67.36,34.83-74.4,29.95-63.98h0Zm85.6,74.59c4.93,7.26,9.43,14.84,13.48,22.68l-65.22,30.53-74.4,34.83,67.36-47.02,58.77-41.02h0Zm25.81,51.37c2.89,8.29,5.29,16.81,7.19,25.52l-71.63,12.74-80.88,14.38,77.23-27.98,68.09-24.67h0Zm-425.82,25.52c1.9-8.71,4.3-17.23,7.19-25.52l68.09,24.67,77.23,27.98-80.88-14.39-71.64-12.74h0Zm19.51-54.21c4.05-7.84,8.56-15.42,13.48-22.68l58.77,41.02,67.36,47.02-74.4-34.83-65.22-30.53h0Zm32.74-47.18c5.88-6.49,12.15-12.64,18.76-18.39l45.75,54.36,52.9,62.85-62.85-52.9-54.56-45.92h0Zm43.59-37.13c7.3-4.75,14.9-9.08,22.76-12.96l29.95,63.98,34.83,74.4-47.02-67.36-40.53-58.06h0Zm51.53-24.71c8.22-2.7,16.66-4.94,25.28-6.67l12.33,69.3,14.38,80.88-27.98-77.23-24.01-66.27h0Z"/>
  <g>
    <path class="cls-1" d="M476.58,835.82c-12.46,0-20.77-7.24-22.37-16.83-.85-4.79,0-11.29,3.73-15.87,1.28,1.06,2.98,2.56,3.94,3.3-2.45,3.3-3.2,8.52-2.24,12.25,1.7,6.6,7.67,11.72,16.08,11.72h37.6c7.88,0,12.67-4.69,12.67-13.1v-28.97h5.75v28.12c0,5.54-1.28,19.38-16.93,19.38h-38.24Zm19.6,10.86h-6.39v7.35h6.39v-7.35Z"/>
    <path class="cls-1" d="M568.81,835.82c-13.63,0-23.64-10.22-23.64-23.01s9.05-24.5,23.64-24.5h18.32v47.61c0,12.35-8.63,18.85-19.49,18.21-4.37-.32-9.37-2.13-10.54-2.88l-.64-5.33c4.37,2.45,7.88,2.66,10.54,2.77,8.63,.32,14.27-4.69,14.38-12.89h-12.57Zm12.57-5.43v-36.74h-12.57c-10.97,0-17.25,10.12-17.25,18.21,0,9.16,6.28,18.53,17.25,18.53h12.57Z"/>
    <path class="cls-1" d="M618.76,791.73h5.75v23.64c.32,8.52,4.79,15.02,14.48,15.02h4.37v5.43h-3.41c-6.92,0-12.57-3.83-15.44-8.09v8.2c0,9.91-8.52,18.32-19.49,18.21-4.37,0-9.37-2.13-10.54-2.88l-.64-5.33c4.37,2.45,8.95,2.77,10.54,2.77,7.46,0,13.42-4.58,14.38-12.78v-44.2Z"/>
    <path class="cls-1" d="M642.73,835.82v-5.43h53.68l.11-6.07c.21-14.17-6.18-30.57-23.86-30.57-9.16,0-15.87,4.15-17.04,12.57h-5.43c.96-12.46,11.18-18,22.47-18,20.88,0,29.72,17.04,29.72,36v11.5h-59.64Zm33.12,18.43h-6.71v-7.24h6.71v7.24Z"/>
  </g>
</svg>